<svg width="10" height="10" viewBox="0 0 10 10" fill="none" xmlns="http://www.w3.org/2000/svg">
<path d="M4.4668 10L1.11035 1.1543H1.05566C1.07389 1.34115 1.08984 1.56901 1.10352 1.83789C1.11719 2.10677 1.12858 2.40072 1.1377 2.71973C1.14681 3.03418 1.15137 3.35547 1.15137 3.68359V10H0.0712891V0.00585938H1.79395L4.95898 8.31836H5.00684L8.21973 0.00585938H9.92871V10H8.78027V3.60156C8.78027 3.30534 8.78483 3.00911 8.79395 2.71289C8.80306 2.41211 8.81445 2.12956 8.82812 1.86523C8.8418 1.59635 8.85547 1.36393 8.86914 1.16797H8.81445L5.41699 10H4.4668Z" fill="#342A25"/>
</svg>
